<svg xmlns="http://www.w3.org/2000/svg" width="493.1" height="493.1" viewBox="0 0 493.1 493.1"><title>travel-world</title><g id="Layer_2" data-name="Layer 2"><g id="Layer_1-2" data-name="Layer 1"><path d="M246.5,493.1c135.8,0,246.5-110.8,246.5-246.5S382.3,0,246.5,0,0,110.8,0,246.5,110.8,493.1,246.5,493.1Z" fill="#aae2ff"/><path d="M246.5,122.9c120.5,0,218.2,97.7,218.2,218.2a221.9,221.9,0,0,1-1.1,22.4,246.6,246.6,0,0,1-434.1,0,220.6,220.6,0,0,1-1.1-22.4C28.3,220.6,126,122.9,246.5,122.9Z" fill="#0e7886"/><path d="M382.9,170.8a218,218,0,0,1,78.6,132.6,19,19,0,0,1-2-4.3,43.2,43.2,0,0,1-9.4,2.3l-.2.3c-2,2.9.1,1.6-3.4,4.6s-6.9,8.3-11.6,11.2c-.6,5,.4,6.1-.8,12-.5,2.2-2.9,8.1-5.8,7.6-.9-.2-4.8-9.7-5.7-12.3-1.5-4.5-3.3-7.8-4.4-12.9-.6-2.7-1-8-1.7-9.8-3,.4-2.9,2.4-5.7.3s-1.1-2.3-2.2-4.5l-7.3-6.7c-1.9-.6-9.2.4-12.2.1-5.5-.5-6-.2-9.3-4.6-5.8.3-5.3,2.5-11-2.4-3.7-3.1-3-8.2-8.4-5.3-.2,4.6,2,5.6,4.1,7.7s3.3,2.7,4,4.9c.1.1.4,2.1.5,2.4,5.2.3,6.5-2.2,9.4-4.3,2.8,2.6.1,3.1,4.1,5.1s2.6.7,4.7,3.3-7.2,13.1-9.9,14.8-3.2.6-5.1,2.1.4,2-4.5,3.8-10.4,5.9-15.9,6.3l-3.6-9.8c-3.5-11.2-3.4-6.9-6.9-12.7-1.7-2.5-1-4.1-2.1-6.4s-2-2.4-3-4.5-3.5-8.2-7.2-7.7c-.8,2.5,3.4,11,4.5,13.1s2.7,3,3.2,5.9-.1,3.6,2.1,6.3c4.7,5.6-.2,4.6,7.1,10.2,5.4,4.1,4.1,5.4,6.4,10.9,3.6,1,14.2-3.7,16-2.3,2.2,3.9-2.5,10-3.7,13.4-3.9,11.2-10.8,11.1-16,19.7-2.9,4.6-4.2,5.3-6.8,10.9s6.1,23.8.6,31.2c-1.2,1.7-5,2.7-9.8,7.8s.1,4.6-1.8,13.8c-1.5,2.1-3.4,2.2-5.3,3.8s-.1,3.9-1.3,6.6-1.5,1.5-3.3,4.1-1.2,2.9-2.7,4.8a19.5,19.5,0,0,1-3.3,3.4c-6.1,5.6-19.1,5.8-20.3,5-3.1-2.6-1-3.3-1.7-7s-2.5-6-3.9-8.5v-.3a19.3,19.3,0,0,1-1.7-3.5c-2.5-7.9-1.6-14-6-22-5.5-10.4,3.1-15.8,2.7-21.7-.1-1.6-.7-2.5-.8-3.8-1-6.5-1.7-12.3-6-17.4s-4.1-3.6-2.6-12.7-2.5-7.8-8.8-8.1c-3.1-9.5-9.1-4.9-15.1-2.1-3.8,1.7-5.2-.5-9.4.1-9.5,1.3-2,5.4-14.7-4.7-5.3-4.2-1.7-2.1-4.9-7.3-1-1.9-4.3-4.4-5.7-6.3-4.8-6,.9-12.1.1-19.1-1.5-12.9-3.6-1.7,3.6-17.2,3.8-8.3,9.5-8.3,11-12s.4-5.6,2.8-8.7,5.1-2,6.3-5.8-1.5-5.4-5-5.5c-1.5-5-1.5-3.8-.4-8.3.6-2.6.1-3.8.6-6.4,1.4-6.4,12.4-.1,15.5-2.7,1.5-2.7,1.7-5.4,0-8.1s-4.1-2.3-5.2-4.8c2.7-1.8.7-.2,3-.7s2.4-1.4,5.6-2,4.7-3.2,7.5-5,2.1-4.9,6.9-5.6c7.8-1.3,2.7-1.1,3.6-8.3l3.4-1.5c2.4,3.2-.6,1.9,2.3,4l2.5-1.3c-.4-3.5-2-2.8-3.1-7.1-3.8.6-5.2,3.9-8.3,2.7s-3.1-5.4-3-9,6.7-4.1,8.9-4.8,3-3.5,6.2-6.7,1.1.1,3.1-5.4c4.6-.2,2.4-.3,5.2-1.7h.4c1.6-.7,3.7-.9,5.8-1.6,7.7-2.6,10.8-1.3,16.4,1s17.4,1.8,18.4,7.3c-3.1,3.3-6.1.9-10.7,1.2.8,4.2,1.2,4.2,5,5.4.6-2-.3-1.2.8-2.5l3.8.7c1.3-4.3,2.7-3.7,7-4.2-.7-3-1.5-2.1.1-4.5,4.4.5.8.1,3,3.6,3.1-.4,6.1-3.8,10.3-4.3,2.7-.3,2.5.7,6.3.3s2.9-1.5,6-.2c1.1-2.1,0-2,2.7-2.5s7.8,1.8,11.9,2.4c-3-3.7-5.9-3-2.2-9.1,4.7-1,5.1-.3,7.1,3.2a27.3,27.3,0,0,0,2.2-1.6Zm-235,301.8h0Q137,467.8,126.7,462l-.2-1c-1-6.2,1.6-6.9-1.3-17.2-1.9-6.8-1.2-23.1-3.2-31.4a13.3,13.3,0,0,0-1.2-3.3c-1.9-3.1-6.5-4.6-10.2-7.1l-.4-.2c-5.1-3.6-9.9-17.6-14-22.9-1.9-2.5-3.1-1.4-3.9-5.4s.5-3,1.7-6c-6.2-11.4,8-11.2,5.1-24.9-.6-2.5-2.4-6-4-7.2-2.9,1.3-1.5,2-3.1,4.5l-7.1-4c-7.2-6.9-3.4-1.9-5.4-6.4-4.3-9.5-8.5-4.2-13.6-8.9-2.3-2-2.7-5-6.6-4.5-5.8.8-2.6,1.7-8.6-1.1s-10.4-5.2-14-8.4c-.1-5,1.7-5.3-1.5-10a25.5,25.5,0,0,0-1.8-2.5A218,218,0,0,1,99.5,180c2.5.9,5.9.3,8.4.2.9-1.7,1.5-3.1,3.1-3.8a6.4,6.4,0,0,1,2.4-.2c.1.8.4,1.7.6,2.5s.1.6.1.5.1.3.2.5c4.4-2.6.7-2.6,3.1-7.3-3.7-.7-3.2-.3-5.5-2.6,2.2-2.5,6.6-3.3,9.8-3.1-.2,2.2-1.3,2.2-.4,4.1,2.5-1.6,4.3-5.8,8.3-5l2.5,1.6c-2.1,2-5.2,2.1-8,3.2-1.2,12.1,3.8,2,2.2,10.3a9.2,9.2,0,0,0,7.1-4.6c-1.1-1.5-2.7-1.5-3.6-3.2a8,8,0,0,1,4.3-4.9,11.9,11.9,0,0,1,5.1-1c22.2.2,11.7,1.2,18.5,4.3,1.5.7,4.3,1,5.2,2.3s.1,4.1,2.3,5.8,2.2-.1,4.8,3.2a4.8,4.8,0,0,1-4.6,3.8c-3.8.1-1.5-2.5-5.6-2.1.1,3.8,3.8,5.3.3,7.3s-1.1-.7-3.4.6l-.3.2-.4.4-1.1,1.2c-5.6-1.5-4.5-.8-7.9-4.5-1.3-1.4-1.5-1.7-3.7-1.6s-3.2.7-4.5-.6c2.7-3.4,4.1-.1,8-2.1a51.4,51.4,0,0,0,5.8-4.5c-1.2-2.7-.1-.5-1.9-2.2-3.9-4-5-3-10.3-3-2.5,2.9-4.3,6.4-7.1,7.9s-3.6,1.2-6.2.1c1.2,4.8,4.3,1.1,4.5,6.9-2-.4-3.1-1.4-5.2-.7-4.5,1.7-.5,1.5-.1,2.4s2.1.3,0,1.1-.4-.4-4.8-3.1l1.9-3.5a92.4,92.4,0,0,0-12.4,5c-4.8,2.4-9.4,5.2-12.1,7.7-.1,4.2.7,1.4,1.1,6.4,6.5.4,4.4,2.3,10.9,4.2l4.8,1c0,3.1-2.8,5.5-.8,8.7,4.5,3.2,4.7-3,5.8-7,15.4-3.2,8-7.7,11.9-16.2a18.9,18.9,0,0,1,2.7-4.1c1.2.1,6,.6,7.1.8,3.5.6,1.6,1.5,5.4,3.1-.1,3-1.6,6.9,2.9,6.2s2.7-3.3,6.8-4c1.9,4.4,1.4,6.3,2.2,11.6,10.1,3.9,5.6,7.1,3.6,14.4l3.9,1.7c-.1,2.1-.1,4.2-.2,6.3l-11.5-2.5c1.6-4.6,4.5-4.6,6.4-9.3-3.8.7-3.5,1.8-6.2,2.7s-4.3.2-6.9.6c-.9,3-.1-2.6.2,1.2.1,1.5.8.1-.1,1.6-3.5-1.6-2.3-5.4-8.8-1.9l4.5,1.9c-.2,4.3-.6,1.1-1.5,3.9-2.2,7.3,6.1,2.8,8.2,2.4-.6,3.9-2.9,3.9-6.3,4.9s-4.8,2.6-7.8,3.3c0-4.6-.7-.7,1.3-3.9-2.9.3-5.1,1.6-7.9,2.8h-.3c-3.6,1.5-4.1,1.7-4.5,6.3-3.1.9-6.6,2-8.8,4.3l-6.4,6.1-.5.4c.8,5.8,0,5.9-3.5,8.1s-3.9,1.8-6.6,4.2c-8.7,7.8-4.5,4.2-4.1,17.7L90.7,286c-1.3-9,.5-6-6.7-8.1s-6.7,1.6-9.9,2.2-5.3-3.2-10.5.1c-2.9,2-5.6,3.2-6.3,6.7s-2.7,7.3-2.4,11.9c.5,12.6,11.9,13.3,14.9,7.4,2-3.9,1.5-6,7.8-5,.6,3.4-.4,5.8-1.2,8.4S74.3,314,75,316c4.5,1.8,4.7-1.6,10.7,2,.4,6-2.7,12.7,1.9,16.2s3.8.3,6.9-.3,2.9,1.6,6.1,2.1c1.8-2.2,1-.8,2.2-3.6,2.1-4.7,2.7-2.5,7.6-5.4l1.4-.9,1.7,3.4c3.6-4.3,4.1-.1,8.2,1.1a16.4,16.4,0,0,0,4.1.7c3,0,3.4-1.4,7.5,0l1.7.6c.1,0,.3.1.3.2l.4.3a16.5,16.5,0,0,1,1.3,2.4l8.5,8.2c5.5,2.2,5.5-1.9,11.8,4.2,2.7,2.5,1.5,2.5,2.9,5.7.2.5.6,1,.9,1.6s1.2,3,1.8,4.4c2.9,3.8,6.8,1.4,10.8,5.3,2.3,2.2.6,1.6,5.7,2.5,7.9,1.3,4.8.6,10.8,5.1,2.3,1.7,2.9.7,5,2.2,3,4.2,2.2,8.7-.3,12.4-7.8,11.3-5.1,9.5-5.5,18.4-.3,5.1-1.7,15.8-6.6,17.1-17.5,4.9-7.3,8.3-11.9,17-1.3,2.5-2.3,3.1-3.1,5-3.5,8.2-1,10.9-11.4,9.1a25,25,0,0,0,1.3,2.1c3.1,4.8,3.6,8.3-2.7,9.5s-3,0-3.5,5.8c-2,.8-2.9,0-4.3,1.3l.5.9Zm-46-294.7h0c1.4-.2,1.3-.8,4.9-1.6a3.3,3.3,0,0,0-.8-1.6v-.2l-4,3.5Zm186.7,64.9h-.1l-1.4-1.1c-3.1-2.7-3.7-5.2-7.1-4.6-.1,2.6.3,2.7,1.5,4.4,4.8,5.9,3.3,3.9,7,6.1h.1l3.3,2.2c-4.8,4.2-.3,4.6-3.3,6h-.1l-.8.3c-1-2.5,1.2-1.3-1.3-4.9-1.4-1.8-2.7-2.4-4.9-3.4-5.5-2.6-4.8-4.6-8.1-7.9-3.8.1-2.9,1.3-5.6,2.6s-2.7-.3-6.5.1c-3.1,5.4,1.3.9-4.3,5.4s-1.2,10.6-11.9,12.3a6.9,6.9,0,0,0-1.8.3c-2,.7-.8.1-2,1.3.9,2.1-.3,1.8,3.3,2.3,6.6.9,7.5-3.2,12.3-4.2,2.4-.5,17.3-1.1,18.3-.8,3.2,3.6.6,6.1.6,9.1,3.5,1.8,8.5,2.3,10.5,4.2s1.2,1.8,2.3,2.2h.1l2.1.7c2.8.9,2.7,1.5,5.7,1.7,2.7-9.1-.1-8.2,13.1-4s7.5.4,13.3,1c2.9.3,2.1,1.2,6.1.7.8-1.6,6.4-15.8-.9-14-2.2.6-.7,1.3-3.8.6s-.1-1.5-3.7-1-7.7,3.6-10.4-7c-1-3.8-2.9-7.1-7.3-1.3,1.1,2,1.9,2.1,3.1,4a26.1,26.1,0,0,1-2,2.4c-2.4,2.3,1,1.2-2.9,1.7-2.1-1.6-1.7-3.6-3.7-6.4-3.6-5.2-1.3-2.8-3.1-7.8-1.4-1.3-3.8-2.2-5.7-3.4h0Zm74.6,150.6h0c-3.1,1.6-3.5,5.2-5.8,7.2s-5.9,1.2-6.8,5.5,2.1,3.7-1.6,10.6c-1.3,2.6-1.4,9,.6,10.9,6.1,5.9,9.4-8.9,10.8-13.6s2-7,3.1-10.1S366.2,397.6,363.2,393.3ZM353.1,237.2h0c.5,6.8,4.5,9.5,7.4,12.6-.3,3.2-1.1,2.4-1,6.9,3.4,2.5,5.9,4,10.4,2.7.6-5.5-1.1-5.2-2.8-9a5.8,5.8,0,0,1,1.2-1.1c1.3-1.7.6.7,1.3-2.2-3.3-1.1-8.6-4.4-9-8.8,1.6-1.3,1.1-.5,2.3-1.3s.6.9,2.2-2c-1.3-2.6-2.8-3-6-1.7a42.3,42.3,0,0,0-5.9,3.8ZM324.6,239h0c-2.2-3-2-4.5-6.2-4.6a21.2,21.2,0,0,0-4.5,7.2c-1.4,4.1-.4,1.3-.3,5.8a1.5,1.5,0,0,0,0,.6c-.1,2.7-.7-.5-.3,2,3.3-.7.8-.6,3.2-1.4s9.4-2.9,11.4-2.4c4.8,1.1,8.9,4.9,14.3,1.1-.3-4.9-6.2-6.7-10.2-8.8.2-4.5,1.4-.9,1.1-5.3-1.4-.1-2.2-.3-3.6.3-3.1,1.4-1.4,1.8-1.4,2.3.1,2.4,3.1-.5-.1,2.5-.9.8-2.4.8-3.5.9h0ZM243,205.1h0c-.1,7.8,2.6,5.2,5.2,9.1-1.2,3.3-1.4.7-2.7,4.1s.3.3-.5,5.3c2,.1,5-.6,7.7-.8s3.7-.7,5-4.5l-6.4-7.7c-2.7-4.1,0-1.3-.8-4.8l-1.7-3.7C245.1,203.3,245.4,202.9,243,205.1Z" fill="#15bdb1"/><path d="M381,191.2l-2.1-2.1-8.7-8.7-2.1-2.1c-6.9,2.6-15.5,13.9-18.9,21l1.1,1.1,8.7,8.7,1.1,1.1c7.1-3.4,18.4-12,21-18.9Z" fill="#fbb429"/><path d="M381,191.2l-2.1-2.1-8.7-8.7-2.1-2.1a18.9,18.9,0,0,0-5,3L378,196.2a18.9,18.9,0,0,0,3-4.9h0Z" fill="#fff"/><path d="M395.6,232.7l-2.1-2.1-8.7-8.7-2.1-2.1c-6.9,2.6-15.5,13.9-18.9,21l1.1,1.1,8.7,8.7,1.1,1.1c7.1-3.4,18.4-12,21-18.9Z" fill="#fbb429"/><path d="M395.6,232.7l-2.1-2.1-8.7-8.7-2.1-2.1a18.7,18.7,0,0,0-5,3l14.9,14.9a18.8,18.8,0,0,0,3-5h0Z" fill="#fff"/><path d="M276.7,86.9l2.1,2.1,8.7,8.7,2.1,2.1c-2.6,6.9-13.9,15.5-21,18.9l-1.1-1.1-8.7-8.7-1.1-1.1c3.4-7.1,12-18.4,18.9-21Z" fill="#fbb429"/><path d="M276.7,86.9l2.1,2.1,8.7,8.7,2.1,2.1a18.6,18.6,0,0,1-3,5L271.8,90A18.6,18.6,0,0,1,276.7,86.9Z" fill="#fff"/><path d="M235.3,72.3l2.1,2.1,8.7,8.7,2.1,2.1c-2.6,6.9-13.9,15.5-21,18.9l-1.1-1.1-8.7-8.7-1.1-1.1c3.4-7.1,12-18.4,18.9-21Z" fill="#fbb429"/><path d="M235.3,72.3l2.1,2.1,8.7,8.7,2.1,2.1a18.7,18.7,0,0,1-3,5L230.4,75.4A18.6,18.6,0,0,1,235.3,72.3Z" fill="#fff"/><path d="M204.4,268.7,229.9,305l8.1-9.9L223.6,257c1.8-1.6-1.6,1.5,5.9-5.2s40.3-36.9,70-61L385,311.7l7.8-7.8L345.5,153.2c19.3-15.9,34.3-28.6,38.3-33.2,12.3-14.1,23.5-32.8,14.7-50.4-17.6-8.8-36.4,2.3-50.4,14.7-4.6,4-17.3,19-33.2,38.3L164.1,75.2,156.3,83l120.9,85.6c-24.1,29.7-54.3,62.5-61,70s-3.6,4.1-5.2,5.9l-38.2-14.5-9.9,8.1,36.3,25.6c-3.9,6.8-1.7,9,5.1,5.1h0Z" fill="#fff"/><path d="M204.4,268.7,229.9,305l2-2.4-24.8-35.9-2.7,1.9h0Z" fill="#c8cacc"/><path d="M165.3,236.1l-2.4,2,36.3,25.6,1.9-2.7-35.9-24.8Z" fill="#c8cacc"/><path d="M299.4,190.8,385,311.7l3-3-83.5-122Z" fill="#c8cacc"/><path d="M159.3,80l-3,3,120.9,85.6,4.1-5.1L159.3,80Z" fill="#c8cacc"/><path d="M391.1,76.8a14.9,14.9,0,0,0-6.2-3.7l-1.4,3.9a21.1,21.1,0,0,1,7.3,7.3l3.9-1.4a14.9,14.9,0,0,0-3.7-6.2h0Zm-9.3-4.3h0a24.1,24.1,0,0,0-11.4,1.6,22.3,22.3,0,0,1,10.3,1.5Zm10.5,14.8h0a22.3,22.3,0,0,1,1.5,10.3,24.1,24.1,0,0,0,1.6-11.4Z" fill="#15bdb1"/><path d="M178,292.4h0l.5-.5.5-.5.5-.5.5-.5.5-.5.5-.5.5-.5.5-.5.5-.5.5-.5.5-.5.5-.5.5-.5.5-.5.5-.5.5-.5.5-.5.5-.5.6-.5.6-.5.6-.5.6-.5.6-.5.6-.5.6-.5.6-.6.6-.6.6-.6.6-.6.6-.6-3.2-3.2-.6.6-.6.6-.6.6-.6.6-.6.5-.6.5-.6.5-.6.5-.6.5-.6.5-.6.5-.5.5-.5.5-.5.5-.5.5-.5.5-.5.5-.5.5-.5.5-.5.5-.5.5-.5.5-.5.5-.5.5-.5.5-.5.5-.5.5-.5.5-.5.5-.5.5h0l3.1,3.3Zm254.3-1.9h0l-.5,1.4-.5,1.4-.5,1.4-.5,1.3-.5,1.3-.5,1.3-.5,1.3-.5,1.3-.5,1.2-.5,1.2-.5,1.2-.5,1.2-.5,1.2-.5,1.1h0l4.1,2h0l.6-1.2.6-1.2.6-1.2.6-1.2.6-1.3.6-1.3.6-1.3.6-1.3.6-1.3.6-1.4.5-1.4.6-1.4.5-1.4.5-1.4-4.2-1.6Zm-14,29.8h0l-.3.5-.6.9-.6.9-.6.9-.6.9-.6.8-.6.8-.6.8-.6.8-.6.8-.6.8-.6.8-.6.7-.6.7-.6.7-.6.7-.6.7-.6.7-.6.6-.6.6-.6.6-.6.6-.6.6-.6.6h-.1l3.2,3.2h.1l.6-.6.6-.6.6-.6.6-.7.6-.7.6-.7.6-.7.6-.7.6-.7.6-.7.6-.8.6-.8.6-.8.6-.8.6-.8.6-.8.6-.9.6-.9.6-.9.6-.9.6-.9.6-.9.6-1,.3-.5-3.9-2.3ZM394.8,346h0l-.6.4-.6.3-.6.3-.6.3-.6.3-.6.3-.6.3-.6.3-.6.3-.6.3-.6.3-.6.2-.6.2-.6.2-.6.2-.6.2-.6.2-.6.2-.6.2-.6.2-.6.2-.6.2-.6.2-.6.2h-6.2l.6,4.5h6l.7-.2.7-.2.7-.2.7-.2.6-.2.7-.2.6-.2.6-.2.7-.2.6-.2.6-.2.6-.2.6-.3.6-.3.6-.3.6-.3.6-.3.6-.3.6-.3.6-.3.6-.3.6-.4.6-.4.6-.4.6-.4h0l-2.4-3.9Zm-33.7,7.8H338.5v4.5h22.7v-4.5Zm-36.5-.4H312.8l-.8.2-.8.2-.8.2-.8.2-.8.2-.8.2-.8.2-.8.2-.8.2-.8.2-.8.2-.8.2-.8.3-.8.3h-.1l1.5,4.3h.1l.7-.3.7-.2.7-.2.7-.2.7-.2.7-.2.7-.2.7-.2.7-.2.7-.2.7-.2.7-.2.7-.2H325l-.4-4.5Zm-35.5,10.3h0l-.6.3-.8.5-.8.5-.8.5-.8.5-.8.5-.8.5-.8.5-.8.6-.8.6-.8.6-.8.6-.8.6-.8.6-.8.6-.8.6-.8.7-.8.7-.8.7-.8.7-.8.7-.8.7-.8.7-.2.2,3.1,3.3.2-.2.8-.7.8-.7.8-.7.8-.7.8-.7.8-.6.8-.6.8-.6.8-.6.8-.6.8-.6.8-.6.8-.5.8-.5.8-.5.8-.5.8-.5.8-.5.8-.5.8-.5.8-.4.8-.4.6-.3-2.2-3.9Zm-28.4,23.6h-.1l-.8,1-.8.9-.8.9-.8.9-.8.9-.8.9-.8.9-.8.9-.8.9-.8.8-.8.8-.8.8-.8.8-.8.8-.8.8-.8.8-.8.8-.8.8-.8.7h-.2l3.1,3.3.2-.2.8-.8.8-.8.8-.8.8-.8.8-.8.8-.8.8-.8.8-.8.8-.8.8-.9.8-.9.8-.9.8-.9.8-.9.8-.9.8-.9.8-.9.8-.9.8-.9h.1l-3.4-3Zm-25.7,25.1h0l-.5.4-.8.6-.8.6-.8.6-.8.6-.8.6-.7.5-.7.5-.7.5-.7.5-.7.5-.7.5-.7.5-.7.5-.7.5-.7.5-.7.5-.7.4-.7.4-.7.4-.7.4-.7.4-.7.4-.7.4-.7.4-.3.2,2.1,4,.4-.2.7-.4.7-.4.7-.4.8-.4.8-.4.8-.4.8-.5.8-.5.8-.5.8-.5.8-.5.8-.5.8-.5.8-.5.8-.5.8-.5.8-.5.8-.6.8-.6.8-.6.8-.6.8-.6.8-.6.8-.6.5-.4-2.8-3.6Zm-30.7,17.4h0l-.6.2-.7.2-.7.2-.7.2-.7.2-.7.2-.7.2-.7.2-.6.2-.6.2h-15l-.2,4.5h15.5l.7-.2.7-.2.7-.2.7-.2.7-.2.7-.2.7-.2.7-.2.7-.2.7-.2.6-.2-1.4-4.3Zm-34.4,1.4h-.2l-.5-.2-.5-.2-.5-.2-.5-.2-.5-.2-.5-.2-.5-.2-.5-.2-.5-.2-.5-.2-.5-.2-.5-.2-.5-.2-.5-.2-.5-.2-.5-.2-.5-.2-.5-.2-.5-.2-.5-.2-.5-.3-.5-.3-.5-.3-.5-.3-.5-.3-.5-.3-.4-.3-.4-.3-.4-.3-.4-.3-.4-.3-.4-.3-.4-.3-.4-.3-.4-.3-.4-.3-.4-.3-.4-.3-.4-.3-.4-.3-.2-.2-2.9,3.5.2.2.4.4.4.3.4.3.5.3.5.3.5.3.5.3.5.3.5.3.5.3.5.3.5.3.5.3.5.3.5.3.5.3.5.3.5.3.5.3.5.3.5.3.5.3.5.3.5.3.5.2.5.2.5.2.5.2.5.2.5.2.5.2.5.2.5.2.6.2.6.2.6.2.6.2.6.2.6.2.6.2h.2l1.3-4.4h0ZM141.4,412h0l-.2-.2-.3-.4-.3-.4-.3-.4-.3-.4-.3-.4-.3-.4-.3-.4-.3-.4-.3-.4-.3-.4-.3-.4-.3-.4-.3-.4-.3-.4-.3-.4-.3-.4-.3-.4-.3-.4-.3-.4-.3-.4-.3-.4-.3-.5-.3-.4-.2-.5-.2-.5-.2-.5-.2-.5-.2-.5-.2-.5-.2-.5-.2-.5-.2-.5-.2-.5-.2-.5-.2-.5-.2-.5-.2-.5-.2-.5-.2-.5-.2-.5-.2-.5-.2-.4-4.2,1.6.2.4.2.5.2.5.2.5.2.5.2.5.2.5.2.5.2.5.2.5.2.5.2.5.2.5.2.5.2.5.3.5.3.5.3.5.3.5.3.5.3.5.3.5.3.5.3.5.3.5.3.5.3.5.3.5.3.5.3.5.3.5.3.5.3.5.3.5.3.5.3.4.3.4.3.4.3.4.3.4.3.4.4.4.2.2,3.5-2.9h0Zm-14.6-31.6h0a54.5,54.5,0,0,1,.1-21.7l-4.4-1a59,59,0,0,0-.1,23.5l4.5-.8h0Zm4.4-34h0c3.1-6.5,7.7-12.8,12.2-18.4l-3.5-2.9a96.1,96.1,0,0,0-12.8,19.3Zm21.2-28.5h0l.4-.4.4-.4.4-.4.4-.4.4-.4.4-.4.4-.4.4-.4.4-.4.4-.4.4-.4.4-.4.4-.4.4-.4.4-.4.4-.4.4-.4.4-.4.4-.4.4-.4.4-.4.4-.4.4-.4.4-.4.4-.4.4-.4.4-.4.4-.4.5-.4.5-.4.5-.4.5-.4.5-.4.5-.5.5-.5.5-.5.5-.5h0l-3.2-3.3h0l-.5.5-.5.5-.5.5-.5.5-.5.4-.5.5-.5.4-.5.4-.5.4-.5.4-.5.4-.4.4-.4.4-.4.4-.4.4-.4.4-.4.4-.4.4-.4.4-.4.4-.4.4-.4.4-.4.4-.4.4-.4.4-.4.4-.4.4-.4.4-.4.4-.4.4-.4.4-.4.4-.4.4-.4.4-.4.4-.4.4-.4.4h0l3.3,3.1h0Z" fill="#fff"/></g></g></svg>